<?xml version="1.0" encoding="utf-8"?>
<!-- Generator: Adobe Illustrator 28.2.0, SVG Export Plug-In . SVG Version: 6.00 Build 0)  -->
<svg version="1.1" xmlns="http://www.w3.org/2000/svg" xmlns:xlink="http://www.w3.org/1999/xlink" x="0px" y="0px"
	 viewBox="0 0 170 200" style="enable-background:new 0 0 170 200;" xml:space="preserve">
<style type="text/css">
	.st0{fill:#FFFFFF;}
	.st1{fill:#D3E8EA;}
	.st2{fill:#333232;}
	.st3{fill:#FDCC9B;}
	.st4{fill:#F4B882;}
	.st5{fill:#352215;}
	.st6{fill:#964711;}
	.st7{fill:#398E3D;}
	.st8{fill:#A86027;}
	.st9{fill:#966544;}
	.st10{fill:#F1A58D;}
	.st11{fill:#EB82A0;}
	.st12{fill:#A9BF52;}
	.st13{fill:#6D4D42;}
	.st14{fill:#8C5438;}
	.st15{fill:#BF8158;}
	.st16{fill:#AA6944;}
	.st17{fill:#2D2C2B;}
	.st18{fill:#A9703B;}
	.st19{fill:#FCB316;}
	.st20{fill:#350304;}
	.st21{fill:#63453D;}
	.st22{fill:#009BCE;}
	.st23{opacity:0.2;}
	.st24{fill:#AAAAAA;}
	.st25{fill:#00ACC2;}
	.st26{fill:#D76327;}
	.st27{fill:#AC69B9;}
</style>
<g id="BACKGROUND">
</g>
<g id="DESIGNED_BY_FREEPIK">
</g>
<g id="OBJECTS">
	<rect class="st22" width="170" height="200"/>
	<g class="st23">
		<path class="st24" d="M36.13,66.71c-1.84,0-3.69-0.02-5.53,0.01c-0.96,0.02-1.4-0.37-1.39-1.35c0.02-3.68,0.01-7.37,0.01-11.05
			c0-0.89,0.41-1.32,1.31-1.32c3.77,0.01,7.55,0,11.32,0c0.84,0,1.26,0.44,1.27,1.24c0.01,3.77,0.01,7.55,0,11.32
			c0,0.84-0.51,1.17-1.32,1.16C39.9,66.7,38.01,66.71,36.13,66.71z M36.09,64.84c1.35,0,2.7-0.03,4.04,0.01
			c0.8,0.02,1.13-0.24,1.12-1.08c-0.04-2.61-0.03-5.21,0-7.82c0.01-0.75-0.26-1.04-1.02-1.04c-2.7,0.02-5.4,0.02-8.09,0
			c-0.74-0.01-1.05,0.25-1.04,1.01c0.03,2.61,0.03,5.22,0,7.82c-0.01,0.81,0.26,1.13,1.09,1.1C33.48,64.81,34.78,64.84,36.09,64.84z
			"/>
		<path class="st24" d="M171.93,60.81c-1.8,0-3.6-0.02-5.4,0.01c-0.96,0.01-1.41-0.39-1.4-1.36c0.01-3.69,0.01-7.37,0-11.06
			c0-0.91,0.43-1.31,1.32-1.31c3.73,0,7.46,0.01,11.19,0c0.98,0,1.35,0.51,1.35,1.44c-0.01,3.64-0.01,7.28,0,10.92
			c0,0.95-0.44,1.38-1.41,1.37C175.71,60.79,173.82,60.81,171.93,60.81z M171.97,58.92c1.35,0,2.7-0.03,4.04,0.01
			c0.79,0.02,1.14-0.24,1.13-1.08c-0.03-2.61-0.03-5.21,0-7.82c0.01-0.75-0.27-1.04-1.02-1.03c-2.7,0.03-5.39,0.02-8.09,0
			c-0.71-0.01-1.08,0.2-1.07,0.99c0.03,2.65-0.02,5.31,0.05,7.96c0.01,0.33,0.57,0.89,0.92,0.91
			C169.27,58.98,170.62,58.92,171.97,58.92z"/>
		<path class="st24" d="M35.57,142.23c-1.75,0-3.51-0.05-5.26,0.02c-1.19,0.04-1.72-0.36-1.7-1.62c0.05-3.51,0.04-7.01,0.01-10.52
			c-0.01-1.06,0.35-1.56,1.49-1.55c3.64,0.04,7.28,0.03,10.92,0c1.11-0.01,1.53,0.48,1.52,1.54c-0.02,3.51-0.03,7.01,0,10.52
			c0.01,1.13-0.41,1.65-1.59,1.62C39.16,142.2,37.37,142.23,35.57,142.23z M35.56,140.36c1.35,0,2.7-0.02,4.04,0.01
			c0.75,0.02,1.04-0.26,1.03-1.02c-0.03-2.61-0.02-5.21,0-7.82c0-0.69-0.17-1.1-0.97-1.09c-2.74,0.03-5.49-0.02-8.23,0.05
			c-0.32,0.01-0.9,0.59-0.91,0.92c-0.08,2.65-0.02,5.31-0.05,7.96c-0.01,0.78,0.31,1.02,1.05,1
			C32.86,140.34,34.21,140.36,35.56,140.36z"/>
		<path class="st24" d="M122.18-3.27c1.8,0,3.6,0.03,5.4-0.01c1.07-0.02,1.57,0.39,1.57,1.5c-0.03,3.6-0.02,7.2,0,10.8
			c0,1.03-0.48,1.47-1.48,1.47c-3.64-0.01-7.29-0.01-10.93,0c-1,0-1.48-0.41-1.47-1.46c0.02-3.65,0.02-7.29,0-10.94
			c0-0.97,0.43-1.39,1.39-1.37C118.49-3.25,120.34-3.27,122.18-3.27z M122.12,8.58c1.35,0,2.7-0.02,4.04,0.01
			c0.69,0.01,1.1-0.15,1.1-0.96c-0.03-2.7,0.02-5.4-0.05-8.09c-0.01-0.31-0.54-0.85-0.84-0.86c-2.79-0.07-5.58-0.07-8.36,0
			c-0.3,0.01-0.83,0.55-0.84,0.85c-0.07,2.7-0.02,5.4-0.05,8.09c-0.01,0.81,0.39,0.98,1.09,0.97
			C119.51,8.56,120.81,8.58,122.12,8.58z"/>
		<path class="st24" d="M172.17,199.54c-1.85,0-3.69-0.03-5.54,0.01c-1.11,0.03-1.51-0.45-1.5-1.53c0.04-3.51,0.04-7.03,0-10.54
			c-0.01-1.13,0.37-1.64,1.56-1.63c3.6,0.04,7.21,0.04,10.81,0c1.12-0.01,1.52,0.48,1.51,1.55c-0.02,3.51-0.03,7.02,0.01,10.54
			c0.01,1.14-0.4,1.65-1.58,1.61C175.68,199.5,173.92,199.54,172.17,199.54z M177.11,197.62c0-3.18,0.02-6.22-0.04-9.26
			c0-0.21-0.62-0.59-0.95-0.6c-2.7-0.05-5.39-0.02-8.09-0.04c-0.72-0.01-1.07,0.22-1.07,1c0.03,2.65-0.01,5.3,0.04,7.95
			c0.01,0.32,0.42,0.89,0.66,0.89C170.75,197.64,173.84,197.62,177.11,197.62z"/>
		<path class="st24" d="M20.75,171.94c-0.05,0.19-0.1,0.45-0.18,0.71c-1.24,4.56-2.47,9.12-3.72,13.67
			c-0.45,1.65-1.07,1.81-2.3,0.61c-3.38-3.3-6.76-6.61-10.12-9.93c-1.33-1.31-1.14-1.95,0.67-2.44c4.61-1.23,9.22-2.46,13.83-3.68
			C20.22,170.55,20.79,170.87,20.75,171.94z M6.96,176.05c2.71,2.88,5.43,5.77,8.31,8.83c1.09-3.99,2.12-7.76,3.24-11.88
			C14.31,174.11,10.48,175.12,6.96,176.05z"/>
		<path class="st24" d="M78.29,137.85c-2.48,0-4.95,0.02-7.43-0.01c-1.46-0.02-1.8-0.61-1.07-1.87c2.46-4.24,4.94-8.48,7.43-12.7
			c0.69-1.17,1.4-1.17,2.1-0.01c2.48,4.18,4.94,8.37,7.39,12.57c0.82,1.41,0.48,2-1.13,2.01C83.15,137.86,80.72,137.85,78.29,137.85
			z M84.49,135.84c-2.09-3.56-4.07-6.94-6.22-10.6c-2.16,3.69-4.14,7.06-6.21,10.6C76.37,135.84,80.3,135.84,84.49,135.84z"/>
		<path class="st24" d="M157.19,96.21c-0.61,2.31-1.23,4.66-1.86,7.01c-0.67,2.47-1.35,4.94-2.04,7.41
			c-0.43,1.54-1.12,1.75-2.25,0.65c-3.48-3.39-6.94-6.8-10.39-10.22c-1.03-1.02-0.87-1.72,0.52-2.09c4.78-1.29,9.56-2.55,14.35-3.8
			C156.69,94.86,157.24,95.23,157.19,96.21z M154.94,97.28c-4.18,1.11-8.03,2.13-11.53,3.05c2.71,2.89,5.41,5.75,8.28,8.81
			C152.79,105.14,153.82,101.37,154.94,97.28z"/>
		<path class="st24" d="M155.59,11.38c0.32,0.16,0.73,0.33,1.12,0.55c4.11,2.33,8.23,4.65,12.32,7.02c0.45,0.26,0.94,0.8,0.99,1.26
			c0.04,0.32-0.57,0.83-1,1.07c-4.09,2.37-8.2,4.7-12.32,7.03c-1.73,0.98-2.26,0.67-2.27-1.3c-0.01-4.68,0-9.37,0-14.05
			C154.44,12.21,154.46,11.47,155.59,11.38z M156.46,26.27c3.64-2.08,7.07-4.04,10.77-6.16c-3.7-2.11-7.14-4.06-10.77-6.12
			C156.46,18.15,156.46,22.03,156.46,26.27z"/>
		<path class="st24" d="M124,163.32c-2.48,0-4.95,0.02-7.43-0.01c-1.49-0.02-1.83-0.57-1.1-1.83c2.46-4.25,4.93-8.49,7.43-12.71
			c0.7-1.18,1.41-1.2,2.1-0.04c2.53,4.26,5.04,8.53,7.53,12.81c0.68,1.17,0.32,1.75-1.09,1.77
			C128.95,163.34,126.47,163.32,124,163.32z M117.72,161.37c4.29,0,8.26,0,12.49,0c-2.1-3.59-4.1-7-6.25-10.67
			C121.82,154.37,119.84,157.75,117.72,161.37z"/>
		<path class="st24" d="M91.4,54.92c-2.43,0-4.86,0.02-7.29-0.01c-1.53-0.02-1.89-0.62-1.13-1.93c2.44-4.2,4.9-8.39,7.37-12.58
			c0.74-1.25,1.43-1.27,2.17-0.03c2.51,4.21,4.99,8.44,7.46,12.68c0.7,1.21,0.3,1.83-1.15,1.85c-2.47,0.02-4.95,0.01-7.42,0.01
			C91.4,54.91,91.4,54.92,91.4,54.92z M91.44,42.27c-2.15,3.68-4.14,7.09-6.19,10.6c4.24,0,8.21,0,12.43,0
			C95.58,49.3,93.59,45.92,91.44,42.27z"/>
		<path class="st24" d="M9.81,98.43c0-2.39-0.01-4.77,0-7.16c0.01-1.58,0.56-1.94,1.88-1.19c4.32,2.42,8.63,4.86,12.92,7.32
			c1.18,0.67,1.16,1.38-0.03,2.06c-4.25,2.44-8.52,4.87-12.79,7.28c-1.44,0.81-1.98,0.49-1.99-1.16
			C9.8,103.2,9.81,100.81,9.81,98.43z M11.77,104.58c3.63-2.07,7.07-4.03,10.8-6.15c-3.72-2.12-7.15-4.07-10.8-6.15
			C11.77,96.48,11.77,100.39,11.77,104.58z"/>
		<path class="st24" d="M25.18,7.12c1.21,0.09,1.11,0.9,0.89,1.74c-0.78,2.91-1.58,5.81-2.37,8.72c-0.47,1.73-0.92,3.48-1.42,5.2
			c-0.43,1.48-1.09,1.67-2.17,0.61c-3.48-3.39-6.94-6.8-10.4-10.21c-1.03-1.01-0.94-1.74,0.3-2.07c4.9-1.34,9.82-2.62,14.73-3.92
			C24.87,7.16,25.01,7.15,25.18,7.12z M12.58,12.35c2.67,2.85,5.36,5.73,8.18,8.74c1.06-3.9,2.09-7.66,3.2-11.73
			C19.79,10.46,15.99,11.46,12.58,12.35z"/>
		<path class="st24" d="M95.87,89.5c0-3.8,3.16-6.9,7.03-6.88c3.73,0.02,6.96,3.12,6.96,6.7c0,3.97-3.05,7.06-6.98,7.08
			C99.01,96.42,95.88,93.34,95.87,89.5z M107.86,89.64c0.15-2.6-1.9-4.9-4.51-5.07c-2.99-0.2-5.46,1.9-5.6,4.75
			c-0.13,2.64,2.08,5.03,4.8,5.19C105.42,94.67,107.69,92.59,107.86,89.64z"/>
		<path class="st24" d="M83.15,198.64c-0.08,3.95-3.29,7.09-7.11,6.95c-3.89-0.14-6.93-3.31-6.83-7.11c0.1-3.76,3.25-6.76,7.06-6.71
			C80.09,191.82,83.23,194.94,83.15,198.64z M76.15,193.67c-2.82,0.02-5.09,2.29-5.05,5.05c0.04,2.78,2.34,4.97,5.17,4.93
			c2.86-0.04,5.03-2.34,4.97-5.26C81.2,195.82,78.85,193.65,76.15,193.67z"/>
		<path class="st24" d="M169.74,142.85c0.01-3.82,3.19-6.95,7.02-6.9c3.71,0.05,6.95,3.18,6.95,6.73c0,3.96-3.07,7.06-6.98,7.07
			C172.85,149.76,169.73,146.69,169.74,142.85z M181.74,142.99c0.13-2.68-2.07-5.02-4.84-5.13c-2.8-0.11-5.16,2.08-5.27,4.88
			c-0.1,2.64,2.03,4.94,4.74,5.09C179.32,148,181.59,145.95,181.74,142.99z"/>
		<path class="st24" d="M72.33,30.02c-3.9-0.01-7.01-3.08-6.99-6.91c0.02-3.8,3.21-6.89,7.07-6.84c3.75,0.04,6.91,3.12,6.91,6.73
			C79.33,26.96,76.28,30.02,72.33,30.02z M77.4,23.11c0.08-2.55-2.17-4.84-4.87-4.96c-2.76-0.12-5.18,2.09-5.3,4.83
			c-0.12,2.69,2.19,5.09,4.97,5.17C75.04,28.24,77.31,26.04,77.4,23.11z"/>
		<path class="st24" d="M-13.6,69.16c1.78,0.24,2.79,1.05,3.53,2.27c1.94,3.2,1.98,3.19,3.96-0.01c1.86-3,5.19-2.99,7.07,0.01
			c1.97,3.14,1.97,3.14,3.96-0.01c0.73-1.16,1.66-2.08,3.07-2.16c0.43-0.02,0.9,0.49,1.35,0.75c-0.31,0.36-0.59,0.76-0.95,1.06
			c-0.62,0.53-1.37,0.92-1.93,1.51c-0.48,0.51-0.72,1.25-1.15,1.82c-1.27,1.69-3.4,1.72-4.7,0.06c-0.58-0.74-0.97-1.62-1.53-2.38
			c-0.98-1.35-2.35-1.34-3.34,0c-0.45,0.61-0.77,1.32-1.2,1.96c-1.47,2.19-3.81,2.19-5.28,0.02c-0.33-0.48-0.51-1.09-0.91-1.49
			c-0.57-0.57-1.31-0.97-1.93-1.49c-0.36-0.3-0.89-0.74-0.86-1.07C-14.4,69.66-13.81,69.35-13.6,69.16z"/>
		<path class="st24" d="M109.72,119.16c-0.78-0.6-1.65-1.11-2.32-1.82c-0.57-0.61-0.86-1.47-1.38-2.15
			c-0.92-1.2-2.25-1.21-3.18-0.01c-0.55,0.71-0.93,1.54-1.45,2.27c-1.36,1.91-3.55,1.93-4.96,0.05c-0.32-0.43-0.58-0.91-0.84-1.38
			c-0.52-0.93-1.13-1.69-2.29-1.91c-0.33-0.06-0.55-0.65-0.82-1c0.37-0.26,0.73-0.72,1.11-0.73c1.38-0.06,2.36,0.74,3.1,1.84
			c0.45,0.67,0.8,1.41,1.27,2.07c0.58,0.8,1.27,0.81,1.86-0.01c0.39-0.55,0.7-1.15,1.05-1.73c1.87-3.01,5.23-3.01,7.06-0.01
			c0.31,0.5,0.56,1.03,0.89,1.51c0.75,1.1,1.44,1.11,2.18,0.02c0.4-0.59,0.71-1.25,1.11-1.85c0.77-1.14,1.8-1.92,3.24-1.84
			c0.34,0.02,0.86,0.44,0.92,0.74c0.06,0.28-0.36,0.93-0.62,0.96c-1.5,0.19-2.05,1.31-2.68,2.41
			C112.31,117.8,111.57,118.94,109.72,119.16z"/>
		<path class="st24" d="M141.22,204.49c-0.81-0.63-1.7-1.17-2.4-1.9c-0.58-0.6-0.87-1.47-1.39-2.15c-0.86-1.13-2.21-1.14-3.09-0.03
			c-0.5,0.63-0.84,1.38-1.28,2.06c-1.52,2.31-3.93,2.29-5.44-0.05c-0.24-0.38-0.37-0.86-0.69-1.15c-0.65-0.61-1.41-1.1-2.09-1.68
			c-0.34-0.29-0.6-0.67-0.89-1.01c0.39-0.28,0.78-0.8,1.18-0.8c1.38-0.03,2.34,0.8,3.08,1.89c0.33,0.48,0.57,1.02,0.88,1.52
			c0.91,1.44,1.66,1.42,2.57-0.06c0.38-0.61,0.69-1.27,1.13-1.83c1.72-2.2,4.69-2.11,6.3,0.18c0.46,0.66,0.81,1.41,1.28,2.07
			c0.66,0.93,1.38,0.94,2.04,0.01c0.42-0.58,0.72-1.25,1.11-1.85c0.7-1.06,1.6-1.9,2.93-1.91c0.44,0,0.89,0.49,1.34,0.76
			c-0.33,0.35-0.61,0.95-0.98,1.02c-1.33,0.25-1.76,1.3-2.32,2.26c-0.69,1.19-1.4,2.35-3.02,2.34
			C141.38,204.27,141.3,204.38,141.22,204.49z"/>
		<path class="st24" d="M60.01,75.29c0.74-1,1.28-1.91,2-2.64c0.52-0.53,1.29-0.8,1.94-1.2c1.4-0.85,1.38-1.6-0.06-2.43
			c-0.54-0.32-1.12-0.58-1.64-0.94c-2.58-1.78-2.53-4.87,0.1-6.56c0.6-0.39,1.26-0.7,1.86-1.09c1.04-0.69,1.05-1.4,0-2.07
			c-0.72-0.46-1.63-0.73-2.16-1.34c-0.7-0.8-1.19-1.82-1.59-2.82c-0.1-0.24,0.52-0.76,0.8-1.16c0.34,0.3,0.71,0.57,1.01,0.91
			c0.59,0.68,1.11,1.4,1.7,2.08c0.17,0.19,0.46,0.27,0.7,0.4c1.19,0.64,2.24,1.44,2.26,2.94c0.02,1.57-1.08,2.38-2.31,3.05
			c-0.4,0.21-0.8,0.41-1.17,0.66c-1.58,1.06-1.56,2.49,0.05,3.54c0.64,0.42,1.35,0.73,1.97,1.17c2,1.4,1.97,3.61-0.04,4.99
			c-0.52,0.36-1.17,0.54-1.61,0.97c-0.58,0.55-0.99,1.29-1.52,1.89c-0.32,0.36-0.74,0.88-1.1,0.87
			C60.84,76.49,60.53,75.87,60.01,75.29z"/>
		<path class="st24" d="M158.66,150.76c-0.31,0.41-0.79,1.25-1.47,1.88c-0.61,0.57-1.47,0.86-2.17,1.34
			c-1.33,0.92-1.36,2.26-0.07,3.21c0.54,0.4,1.16,0.68,1.74,1.03c2.63,1.54,2.66,4.02,0.08,5.6c-0.54,0.33-1.16,0.55-1.61,0.97
			c-0.46,0.43-0.73,1.07-1.15,1.56c-0.33,0.38-0.77,0.66-1.15,0.98c-0.24-0.47-0.8-1.1-0.66-1.38c0.51-1,1.19-1.94,1.94-2.78
			c0.43-0.47,1.16-0.67,1.72-1.04c1.18-0.76,1.16-1.45-0.05-2.21c-0.57-0.36-1.18-0.65-1.75-1.02c-2.66-1.76-2.63-4.9,0.07-6.63
			c0.64-0.41,1.34-0.74,1.97-1.17c0.84-0.57,0.85-1.25,0.02-1.84c-0.62-0.44-1.32-0.77-1.97-1.17c-1.1-0.66-1.88-1.6-1.99-2.89
			c-0.03-0.43,0.48-0.9,0.75-1.36c0.36,0.31,0.97,0.57,1.04,0.94c0.28,1.45,1.47,1.84,2.51,2.43
			C157.66,147.9,158.64,148.69,158.66,150.76z"/>
		<path class="st24" d="M100.78,3.04c-0.3,0.42-0.75,1.29-1.42,1.94c-0.56,0.55-1.38,0.83-2.06,1.27c-1.59,1.03-1.58,2.49,0.01,3.53
			c0.56,0.37,1.19,0.64,1.75,1.01c2.28,1.49,2.26,3.84-0.03,5.32c-0.45,0.29-1.02,0.45-1.39,0.82c-0.58,0.57-1.01,1.28-1.56,1.89
			c-0.31,0.35-0.73,0.61-1.1,0.9c-0.25-0.42-0.71-0.84-0.7-1.25c0.02-1.39,0.9-2.3,2.02-2.99c0.61-0.38,1.28-0.67,1.86-1.09
			c0.9-0.64,0.89-1.27-0.03-1.91c-0.59-0.41-1.25-0.71-1.86-1.09c-2.76-1.7-2.79-4.97-0.05-6.72c0.61-0.39,1.27-0.68,1.86-1.09
			c0.99-0.68,1-1.31,0.02-1.99c-0.66-0.46-1.42-0.79-2.08-1.24c-1.1-0.75-1.86-1.75-1.75-3.14c0.03-0.34,0.46-0.85,0.76-0.9
			c0.29-0.05,0.92,0.37,0.95,0.64c0.22,1.49,1.35,2.03,2.47,2.63C99.66,0.21,100.68,0.99,100.78,3.04z"/>
		<path class="st24" d="M44.89,159.36c-0.45,0.51-1.09,1.38-1.88,2.09c-0.59,0.53-1.42,0.79-2.05,1.28c-1.03,0.81-1.03,2.07,0,2.88
			c0.67,0.52,1.46,0.89,2.18,1.35c2.29,1.45,2.29,3.86-0.01,5.32c-0.38,0.24-0.79,0.44-1.18,0.66c-0.88,0.49-1.65,1.03-1.83,2.18
			c-0.05,0.32-0.66,0.55-1.02,0.82c-0.25-0.37-0.7-0.72-0.73-1.1c-0.08-1.34,0.7-2.29,1.75-3c0.67-0.45,1.42-0.79,2.09-1.24
			c0.92-0.63,0.93-1.26,0.04-1.91c-0.51-0.37-1.09-0.63-1.63-0.96c-3.15-1.89-3.15-5.21,0-7.07c0.31-0.18,0.67-0.31,0.93-0.54
			c0.47-0.43,1.25-0.94,1.23-1.38c-0.02-0.48-0.77-0.97-1.28-1.36c-0.64-0.49-1.53-0.75-1.98-1.36c-0.57-0.78-0.85-1.8-1.14-2.75
			c-0.06-0.19,0.43-0.73,0.72-0.77c0.29-0.05,0.9,0.29,0.93,0.51c0.2,1.74,1.61,2.27,2.85,2.96
			C44.01,156.57,44.78,157.44,44.89,159.36z"/>
		<path class="st24" d="M156.27,81.47c-0.77-0.55-1.61-1.01-2.28-1.66c-0.5-0.49-0.75-1.22-1.14-1.82
			c-1.16-1.79-2.66-1.81-3.83-0.05c-0.25,0.37-0.44,0.78-0.67,1.17c-1.67,2.83-4.17,2.85-5.86,0.06c-0.21-0.35-0.33-0.78-0.61-1.04
			c-0.61-0.55-1.32-0.97-1.94-1.5c-0.36-0.31-0.62-0.72-0.93-1.09c0.42-0.25,0.97-0.81,1.23-0.69c1.02,0.46,2.04,1.03,2.88,1.76
			c0.58,0.51,0.84,1.37,1.3,2.03c0.62,0.87,1.32,0.88,1.95,0.02c0.42-0.58,0.73-1.24,1.12-1.84c1.77-2.75,5.06-2.76,6.85-0.01
			c0.39,0.6,0.7,1.26,1.12,1.85c0.61,0.86,1.34,0.86,1.96,0c0.47-0.66,0.83-1.39,1.27-2.07c0.71-1.08,1.71-1.76,3.01-1.76
			c0.38,0,0.76,0.46,1.14,0.7c-0.25,0.37-0.47,1.01-0.77,1.05c-1.39,0.18-1.92,1.19-2.5,2.22C158.88,80,158.19,81.26,156.27,81.47z"
			/>
		<path class="st24" d="M56.19,93.44c-2.58,0.01-4.65,1.82-5.01,4.39c-0.1,0.73-0.12,1.59-1.14,1.47c-1-0.13-0.87-1-0.78-1.72
			c0.41-3.44,3.51-6.09,7.02-6.04c3.44,0.05,6.53,2.75,6.88,6.07c0.07,0.69,0.18,1.59-0.83,1.7c-0.93,0.1-0.98-0.64-1.07-1.36
			C60.91,95.3,58.78,93.43,56.19,93.44z"/>
		<path class="st24" d="M138.83,60.81c-3.93-0.12-6.97-3.34-6.95-6.88c0.02-3.55,3.07-6.76,6.55-6.79c0.45,0,0.9,0.51,1.34,0.79
			c-0.41,0.37-0.77,0.84-1.25,1.07c-0.91,0.44-2.03,0.56-2.82,1.15c-1.61,1.19-2.25,2.92-1.77,4.9c0.5,2.08,1.91,3.3,3.97,3.79
			c0.22,0.05,0.49-0.02,0.66,0.1c0.43,0.29,0.82,0.65,1.22,0.98C139.39,60.29,138.99,60.66,138.83,60.81z"/>
		<path class="st24" d="M104.45,182.89c3.47,0.01,6.47,2.59,6.93,5.99c0.09,0.7,0.21,1.59-0.77,1.74c-1.03,0.16-1.02-0.68-1.13-1.42
			c-0.39-2.66-2.48-4.42-5.14-4.38c-2.59,0.03-4.6,1.81-4.96,4.43c-0.1,0.7-0.12,1.48-1.05,1.4c-1.03-0.09-0.9-0.94-0.82-1.67
			C97.89,185.51,100.89,182.87,104.45,182.89z"/>
		<path class="st24" d="M51.23,3.63c-0.03-3.49,2.85-6.62,6.34-6.88c0.7-0.05,1.53-0.06,1.48,0.86c-0.02,0.36-0.77,0.9-1.25,0.99
			c-2.78,0.49-4.63,2.39-4.65,4.94c-0.02,2.56,1.81,4.59,4.56,5.01c0.69,0.1,1.5,0.1,1.37,1.06c-0.13,0.97-0.94,0.91-1.69,0.79
			C53.77,9.83,51.27,7.09,51.23,3.63z"/>
		<path class="st24" d="M39.5,197.66c2.03,0,4.05,0,6.08,0c0.71,0,1.54,0.1,1.43,0.96c-0.05,0.37-0.94,0.9-1.46,0.91
			c-4.14,0.07-8.29,0.04-12.43,0.04c-0.69,0-1.56-0.05-1.43-0.95c0.05-0.38,0.93-0.89,1.46-0.92
			C35.27,197.6,37.39,197.66,39.5,197.66z"/>
		<path class="st24" d="M143.15,180.06c-0.64-0.59-1.19-1.1-1.74-1.63c-0.49-0.48-1.08-1.01-0.39-1.7c0.67-0.68,1.22-0.1,1.73,0.35
			c0.54,0.47,1.06,0.96,1.96,1.77c0.57-0.73,1.05-1.51,1.7-2.1c0.3-0.28,0.94-0.19,1.42-0.28c-0.03,0.52,0.11,1.14-0.13,1.53
			c-0.41,0.67-1.06,1.21-1.95,2.18c0.73,0.56,1.51,1.02,2.09,1.67c0.28,0.32,0.16,0.99,0.21,1.5c-0.48-0.05-1.06,0.06-1.42-0.17
			c-0.7-0.46-1.28-1.1-2.22-1.95c-0.59,0.73-1.09,1.49-1.75,2.07c-0.31,0.27-0.93,0.18-1.41,0.26c0.03-0.52-0.12-1.15,0.12-1.53
			C141.81,181.33,142.49,180.77,143.15,180.06z"/>
		<path class="st24" d="M119.41,64.93c-0.76-0.72-1.46-1.25-1.96-1.92c-0.25-0.33-0.15-0.93-0.2-1.41c0.48,0.02,1.07-0.13,1.42,0.09
			c0.71,0.46,1.29,1.11,2.27,2.01c0.57-0.71,1.04-1.49,1.7-2.06c0.33-0.28,1-0.18,1.51-0.25c-0.06,0.51,0.03,1.12-0.22,1.51
			c-0.43,0.67-1.06,1.2-1.9,2.1c0.64,0.5,1.25,0.95,1.83,1.43c0.54,0.45,1.11,0.99,0.49,1.69c-0.61,0.68-1.21,0.22-1.74-0.27
			c-0.55-0.51-1.13-1-1.96-1.72c-0.51,0.63-0.93,1.21-1.41,1.74c-0.48,0.52-1.02,1.22-1.79,0.47c-0.68-0.67-0.09-1.22,0.37-1.72
			C118.32,66.09,118.81,65.57,119.41,64.93z"/>
		<path class="st24" d="M50.92,35.9c0.7,0.67,1.4,1.18,1.88,1.86c0.26,0.37,0.15,1,0.21,1.51c-0.48-0.05-1.06,0.04-1.43-0.19
			c-0.7-0.45-1.29-1.08-2.2-1.88c-0.62,0.74-1.13,1.5-1.8,2.06c-0.3,0.26-0.92,0.14-1.4,0.19c0.02-0.48-0.12-1.07,0.1-1.41
			c0.46-0.7,1.12-1.27,1.9-2.12c-0.68-0.59-1.4-1.06-1.91-1.71c-0.29-0.36-0.25-0.99-0.36-1.5c0.55,0.05,1.19-0.06,1.63,0.19
			c0.68,0.4,1.21,1.04,2.06,1.81c0.56-0.67,1-1.38,1.61-1.86c0.4-0.31,1.06-0.29,1.61-0.42c-0.07,0.55,0.01,1.18-0.25,1.62
			C52.17,34.72,51.53,35.24,50.92,35.9z"/>
		<path class="st24" d="M150.43,128.31c0.74,0.7,1.45,1.26,2.01,1.95c0.24,0.3,0.15,0.85,0.21,1.29c-0.48,0.02-1.08,0.23-1.42,0.01
			c-0.75-0.47-1.36-1.14-2.3-1.97c-0.61,0.72-1.12,1.46-1.79,2.03c-0.31,0.26-0.92,0.18-1.39,0.25c0.02-0.51,0.04-1.02,0.07-1.53
			c0-0.03,0.06-0.06,0.09-0.1c1.57-1.87,1.54-1.84-0.06-3.63c-0.31-0.35-0.23-1.06-0.32-1.6c0.51,0.07,1.16-0.03,1.52,0.24
			c1.94,1.48,1.89,1.49,3.78-0.13c0.34-0.29,0.99-0.22,1.5-0.32c-0.07,0.55,0.01,1.18-0.24,1.62
			C151.72,127.08,151.1,127.57,150.43,128.31z"/>
		<path class="st24" d="M54.76,118c-0.73-0.69-1.43-1.21-1.91-1.88c-0.26-0.36-0.14-1-0.19-1.51c0.48,0.05,1.06-0.05,1.42,0.18
			c0.7,0.45,1.29,1.09,2.18,1.89c0.59-0.68,1.06-1.4,1.71-1.92c0.36-0.29,0.99-0.24,1.51-0.35c-0.06,0.55,0.03,1.19-0.23,1.62
			c-0.4,0.67-1.04,1.19-1.67,1.88c0.72,0.68,1.43,1.19,1.91,1.86c0.26,0.36,0.14,0.99,0.19,1.5c-0.48-0.05-1.06,0.06-1.42-0.17
			c-0.7-0.46-1.28-1.1-2.25-1.98c-0.59,0.74-1.07,1.5-1.72,2.09c-0.3,0.27-0.93,0.19-1.41,0.27c0.03-0.51-0.12-1.14,0.12-1.52
			C53.44,119.26,54.1,118.71,54.76,118z"/>
		<path class="st24" d="M119.95,30.02c-2.11,0-4.22,0.06-6.33-0.04c-0.47-0.02-0.92-0.57-1.38-0.88c0.46-0.31,0.91-0.89,1.37-0.89
			c4.22-0.07,8.44-0.07,12.66,0c0.47,0.01,0.92,0.57,1.38,0.88c-0.46,0.31-0.9,0.87-1.37,0.89
			C124.18,30.08,122.06,30.02,119.95,30.02z"/>
		<path class="st24" d="M104.24,159.83c0.02,1.88-1.41,3.34-3.28,3.33c-1.8-0.01-3.26-1.44-3.28-3.22c-0.03-1.84,1.46-3.34,3.3-3.34
			C102.8,156.62,104.22,158.02,104.24,159.83z M100.62,161.42c0.21,0.01,0.42,0.01,0.63,0.02c0.37-0.51,1.08-1.05,1.02-1.51
			c-0.06-0.5-0.75-1.18-1.28-1.31c-0.77-0.2-1.46,0.4-1.34,1.24C99.73,160.4,100.28,160.9,100.62,161.42z"/>
		<path class="st24" d="M67.48,173.78c-0.31-0.26-0.69-0.43-0.73-0.65c-0.06-0.35-0.01-0.83,0.2-1.1c0.43-0.57,1-1.04,1.51-1.54
			c2.5-2.47,5-4.93,7.51-7.39c0.52-0.51,1.1-1.18,1.81-0.43c0.71,0.75,0,1.31-0.51,1.81c-2.88,2.85-5.77,5.69-8.67,8.52
			C68.29,173.29,67.89,173.49,67.48,173.78z"/>
		<path class="st24" d="M118.94,131.07c-2.11,0-4.22,0.06-6.33-0.04c-0.47-0.02-0.91-0.59-1.37-0.9c0.46-0.3,0.92-0.87,1.39-0.87
			c4.22-0.07,8.44-0.07,12.66,0c0.46,0.01,0.9,0.59,1.36,0.9c-0.46,0.31-0.91,0.85-1.38,0.87
			C123.16,131.12,121.05,131.07,118.94,131.07z"/>
		<path class="st24" d="M85.54,95.5c-0.03,1.86-1.53,3.28-3.42,3.22c-1.81-0.06-3.24-1.53-3.22-3.31c0.03-1.82,1.59-3.29,3.44-3.23
			C84.14,92.24,85.56,93.72,85.54,95.5z M83.84,95.71c-0.01-0.2-0.01-0.4-0.02-0.59c-0.53-0.35-1.04-0.92-1.61-0.98
			c-0.85-0.1-1.53,0.56-1.3,1.41c0.14,0.51,0.89,1.14,1.4,1.17C82.8,96.75,83.33,96.08,83.84,95.71z"/>
		<path class="st24" d="M20.89,44.8c-1.89,0.02-3.38-1.42-3.37-3.26c0.01-1.77,1.46-3.22,3.26-3.25c1.86-0.03,3.37,1.45,3.37,3.28
			C24.14,43.35,22.71,44.78,20.89,44.8z M21.16,39.99c-0.21,0-0.41,0-0.62,0c-0.37,0.52-1.07,1.09-1.01,1.56
			c0.07,0.51,0.84,1.28,1.3,1.29c0.46,0,1.24-0.77,1.31-1.27C22.21,41.08,21.52,40.51,21.16,39.99z"/>
		<path class="st24" d="M155.04,40.39c0,1.82-1.43,3.25-3.25,3.27c-1.83,0.02-3.32-1.41-3.33-3.2c-0.01-1.88,1.47-3.37,3.33-3.35
			C153.61,37.13,155.04,38.57,155.04,40.39z M151.53,41.98c0.2-0.01,0.39-0.02,0.59-0.03c0.35-0.54,1.02-1.13,0.95-1.6
			c-0.08-0.5-0.83-1.15-1.37-1.25c-0.79-0.15-1.43,0.52-1.26,1.34C150.56,41,151.15,41.47,151.53,41.98z"/>
	</g>
	<g>
		<path class="st26" d="M146.11,114.05c-16.27-22.68-18.64-38.73-18.64-38.73l-9.3-3.58l-34.09,8.34L50,71.74l-9.3,3.58
			c0,0-6.47,17.11-18.64,38.73c-27.94,49.68-4.38,72.9,28.83,81.27h28.38h9.62h32.13C154.25,186.94,176.12,155.89,146.11,114.05z"/>
		<g>
			<rect x="69.8" y="159.08" class="st3" width="30.14" height="30.68"/>
			<g>
				<g>
					<g>
						<g>
							<g>
								<path class="st3" d="M36.37,111.98c0.04,7.04-5.63,12.77-12.66,12.81c-7.04,0.05-12.77-5.62-12.82-12.66
									c-0.04-7.04,5.63-12.77,12.66-12.81C30.59,99.28,36.32,104.95,36.37,111.98z"/>
								<path class="st4" d="M31.03,112.01c0.03,4.09-3.27,7.42-7.35,7.45c-4.08,0.02-7.42-3.27-7.44-7.36
									c-0.02-4.09,3.27-7.42,7.36-7.44C27.67,104.63,31,107.93,31.03,112.01z"/>
							</g>
						</g>
						<g>
							<g>
								<path class="st3" d="M158.85,111.26c0.04,7.03-5.63,12.77-12.66,12.81c-7.04,0.05-12.77-5.62-12.82-12.66
									c-0.04-7.04,5.63-12.77,12.67-12.81C153.07,98.56,158.8,104.23,158.85,111.26z"/>
								<path class="st4" d="M153.5,111.3c0.03,4.09-3.27,7.42-7.35,7.44c-4.08,0.02-7.42-3.27-7.44-7.36
									c-0.02-4.08,3.27-7.42,7.36-7.44C150.15,103.92,153.48,107.21,153.5,111.3z"/>
							</g>
						</g>
					</g>
					<path class="st3" d="M145.82,115.8c0.16,27.23-21.99,49.64-49.22,49.81l-23.45,0.13c-27.24,0.17-49.65-21.99-49.81-49.22
						l-0.12-21.31C23.05,67.98,45.2,45.57,72.43,45.41l23.45-0.14c27.23-0.16,49.65,21.99,49.81,49.22L145.82,115.8z"/>
					<path class="st4" d="M91.7,129.3c0.01,2.37-3.03,4.31-6.78,4.34c-3.76,0.02-6.82-1.88-6.84-4.26
						c-0.01-2.37,3.03-4.31,6.79-4.33C88.62,125.02,91.68,126.93,91.7,129.3z"/>
					<path class="st0" d="M84.88,141.6H68.03c0,0,1.49,11.49,16.86,11.49c15.37,0,16.86-11.49,16.86-11.49H84.88z"/>
					<g>
						<path class="st5" d="M122.33,116.24c0,3.48-2.06,6.32-4.58,6.32c-2.52,0-4.59-2.85-4.59-6.32c0-3.48,2.06-6.32,4.59-6.32
							C120.27,109.92,122.33,112.76,122.33,116.24z"/>
						<path class="st5" d="M55.9,116.24c0,3.48-2.06,6.32-4.59,6.32c-2.52,0-4.58-2.85-4.58-6.32c0-3.48,2.06-6.32,4.58-6.32
							C53.83,109.92,55.9,112.76,55.9,116.24z"/>
					</g>
				</g>
			</g>
		</g>
		<path class="st27" d="M99.94,174.42c-2.63,4.33-9.23,13.65-15.7,13.5c-6.05-0.13-11.99-9.45-14.44-13.5
			c0,0-47.89-1.11-58.91,27.01h73.64h0.34h73.64C147.5,173.31,99.94,174.42,99.94,174.42z"/>
		<g>
			<g>
				<g>
					<path class="st13" d="M110.62,101.5c4.36-2.3,9.83-2.2,13.73,0.92c1.1,0.87,2.65-0.67,1.55-1.55
						c-4.71-3.76-11.07-4.07-16.38-1.27C108.27,100.26,109.38,102.15,110.62,101.5L110.62,101.5z"/>
				</g>
				<g>
					<path class="st13" d="M58.41,101.5c-4.36-2.3-9.83-2.2-13.73,0.92c-1.09,0.87-2.65-0.67-1.55-1.55
						c4.71-3.76,11.07-4.07,16.39-1.27C60.76,100.26,59.65,102.15,58.41,101.5L58.41,101.5z"/>
				</g>
			</g>
			<path class="st26" d="M25.43,103.94c0,0,26.74-22.73,34.63-38.04c0,0,29.73,15.52,86.01,38.04c0,0,5.26-5.51,9.37-1.26
				c0,0,5.61-83.42-69.31-80.68c0.13,0.01-74.64-6.87-69.66,79.39C16.47,101.39,22.03,101.31,25.43,103.94z"/>
		</g>
	</g>
</g>
</svg>
