<?xml version="1.0" encoding="utf-8"?>
<!-- Generator: Adobe Illustrator 28.2.0, SVG Export Plug-In . SVG Version: 6.00 Build 0)  -->
<svg version="1.1" id="Capa_1" xmlns="http://www.w3.org/2000/svg" xmlns:xlink="http://www.w3.org/1999/xlink" x="0px" y="0px"
	 viewBox="0 0 639.98 418.81" style="enable-background:new 0 0 639.98 418.81;" xml:space="preserve">
<style type="text/css">
	.st0{fill:#FFFFFF;}
	.st1{fill:#FDFDFD;}
	.st2{fill:#002D62;}
	.st3{fill:#CD1126;}
	.st4{fill:#1C7C28;}
	.st5{fill:#113257;}
	.st6{fill:#847A65;}
</style>
<g>
	<path class="st1" d="M362.98,422.81c-28.66,0-57.31,0-85.97,0c0.08-1.66,0.23-3.32,0.23-4.97c0.01-53.3-0.05-106.6,0.12-159.9
		c0.02-4.7-0.96-6.06-5.91-6.05c-77.96,0.18-155.92,0.13-233.88,0.12c-12.49,0-24.98-0.08-37.47-0.12c0-28.32,0-56.64,0-84.96
		c2-0.04,3.99-0.12,5.99-0.12c88.46-0.01,176.93-0.05,265.39,0.12c4.95,0.01,5.9-1.35,5.89-6.04c-0.18-53.3-0.11-106.61-0.12-159.91
		c0-1.66-0.15-3.31-0.24-4.97c28.66,0,57.31,0,85.97,0c-0.08,1.66-0.23,3.32-0.23,4.97c-0.01,53.3,0.05,106.6-0.12,159.9
		c-0.02,4.7,0.96,6.06,5.91,6.05c77.96-0.18,155.92-0.13,233.88-0.12c12.49,0,24.98,0.08,37.47,0.12c0,28.32,0,56.64,0,84.96
		c-2,0.04-3.99,0.12-5.99,0.12c-88.46,0.01-176.93,0.05-265.39-0.12c-4.95-0.01-5.9,1.35-5.89,6.04
		c0.18,53.3,0.11,106.61,0.12,159.91C362.74,419.5,362.9,421.15,362.98,422.81z M321.93,224.83c0.4,0.01,0.81,0.03,1.21,0.04
		c1.62,2.14,0.46,4.54,0.57,7.03c3.51,0,6.95,0,10.4,0c0.28,2.35-1.33,4.01-2.21,5.93c-8.33,0.13-16.66,0.25-24.98,0.38
		c-1.24-4.14-1.65-4.17-6.68-4.5c-0.9-0.06-5.89,0.43-3.21-3.87c0.6-0.97-0.46-1.65-0.54-2.17c-0.5-3.54-3.74-7-0.42-10.87
		c0.52-0.61-0.19-3.59-1.77-4.14c-1.72-0.61-1.94-1.32-0.45-1.76c2.28-0.66,2.82-2.46,2.17-3.79c-0.7-1.45-2.69-1.69-4.3-0.51
		c0.04-0.64,0.08-1.27,0.12-1.91c2.66,0.36,5.9-0.26,5.79-2.92c-0.19-4.41-5.38-2-7.77-4.23c1.64-0.77,3.4-1.13,4.54-2.74
		c1.15-1.63,0.36-2.58-0.83-3.22c-2.36-1.27-6.31,1.25-6.82,3.98c-0.19,1.04,1.1,3.85-1.67,2.78c-2.42-0.93-2.23,0.3-2.07,1.62
		c0.49,4.16,0.04,6.59-4.73,2.11c-0.07,3.38-0.91,6.13,0.8,8.55c0.8,1.14,0.83,2.12,0.4,3.22c-2.08,5.29-1.96,5.62,3.53,7.17
		c1.18,0.34,0.89,1.17,0.92,1.94c-2.14,1.66-2.14,1.66,0.98,5.12c-0.27,2.15,3.06,3.74,0.98,6.18c-1.75-0.31-3.28-2.73-5.31-0.47
		c-1.76,1.96,0.2,3.4,0.68,4.98c2,6.53,9.64,7.45,12.95,12.76c0.38,0.6,1.23,0.42,1.76-0.09c3.39-3.17,8.21-4.35,11.15-8.21
		c1.04-1.36,2.77-0.26,4.11-0.08c0.94,0.13,0.92,1.71,0.45,2.04c-1.35,0.94-2.88,2.52-1.29,3.29c1.25,0.61,2.95,2.22,5.32,0.94
		c2.02-1.09,4.76-1.13,7.27-0.37c3.77,1.14,5.22,0.35,6.46-3.47c0.21-0.64,0.54-0.82,0.94-0.73c2.29,0.56,5.53-0.45,5.82,3.5
		c0.09,1.26,0.8,2.46,2.06,2.46c4,0,8.68,2.21,11.27-3.12c0.4-0.83,1.26-1.92,2.01-2.01c4.7-0.55,5.8-4.38,7.5-7.73
		c1.76-3.47,0.24-5.11-3.09-5.84c-0.78-2.35,0.21-3.37,2.55-3.55c2.17-0.16,1.5-2.43,2.44-3.52c-3.01-1.66,3.19-4.14-0.53-5.8
		c-3.48-1.56-2.95-3.71-1.22-6.54c1.39-2.26,1.21-4.85-1.37-6.62c-1.68-1.44,0.6-2.3,0.5-3.38c-0.21-2.08-0.32-4.44-1.4-6.06
		c-0.89-1.35-1.8,1.19-3.01,1.29c-1.46-1.62,1.89-3.71-0.39-5.08c-1.56-0.38-2.53,3.54-4.29,0.3c-1.96,4.44-2.16,0.36-2.86-0.64
		c-0.72-1.02-0.81-2.58-2.65-2.46c-1.87,0.12-2.53,1.28-2.81,2.87c-1.46-0.77-0.75-2.23-1.07-3.36c1.61-1.72,3.3-3.38,4.12-5.68
		c3.81-0.43,7.2,1.1,10.47,2.61c2.57,1.18,2.25-2.7,4.26-1.96c0.64-1.97-1.18-2.02-2.14-2.52c-2.01-1.05-5.6-1.45-5.98-2.83
		c-1.75-6.23-6.91-6.06-11.48-7.21c-1.29-0.68-2.58-1.34-4.12-0.91c-1.23-0.39-3.38,0.48-3.64-0.76c-0.93-4.49-4.37-3.28-7.08-3.42
		c-3.63-0.19-7.29,0-10.93,0.03c-1.34,0.01-3.26-0.14-3.59,1.09c-1.02,3.71-3.95,2.48-6.31,3.04c-4.87,1.15-10.5,1.53-13.25,6.26
		c-1.01,1.73-1.89,2.62-3.45,3.33c-1.65,0.75-3.35,1.41-4.92,2.3c-0.81,0.46-1.42,0.78,0.12,1.84c2.09,1.44,3.53,1.93,5.94,0.81
		c2.18-1.01,4.75-1.19,7.15-1.73c1.65,1.74,3.3,3.48,4.95,5.22c0.09,7.75,0.18,15.5,0.28,23.25c-0.03,3.82-0.29,7.66-0.02,11.46
		c0.41,5.75,3.96,7.72,11.43,8.14c6.57,0.36,3.6-4.23,4.25-6.97c0.19-0.79,0.08-1.67,0.92-2.16
		C316.96,227.36,319.3,226.45,321.93,224.83z"/>
	<path class="st2" d="M277.01-4c0.08,1.66,0.24,3.31,0.24,4.97c0.01,53.3-0.05,106.61,0.12,159.91c0.02,4.69-0.93,6.05-5.89,6.04
		c-88.46-0.17-176.93-0.13-265.39-0.12c-2,0-3.99,0.08-5.99,0.12C0.1,111.28,0.14,55.64,0,0c-0.01-3.42,0.67-4.1,4.1-4.09
		C95.07-3.97,186.04-4,277.01-4z"/>
	<path class="st3" d="M639.89,166.92c-12.49-0.04-24.98-0.12-37.47-0.12c-77.96-0.01-155.92-0.06-233.88,0.12
		c-4.95,0.01-5.92-1.35-5.91-6.05c0.18-53.3,0.11-106.6,0.12-159.9c0-1.66,0.15-3.32,0.23-4.97c90.97,0,181.94,0.02,272.91-0.1
		c3.42,0,4.1,0.67,4.1,4.09C639.85,55.64,639.89,111.28,639.89,166.92z"/>
	<path class="st3" d="M0.1,251.89c12.49,0.04,24.98,0.12,37.47,0.12c77.96,0.01,155.92,0.06,233.88-0.12
		c4.95-0.01,5.92,1.35,5.91,6.05c-0.18,53.3-0.11,106.6-0.12,159.9c0,1.66-0.15,3.32-0.23,4.97c-90.87,0-181.74-0.02-272.61,0.08
		c-3.44,0-4.43-0.5-4.41-4.27C0.15,363.05,0.1,307.47,0.1,251.89z"/>
	<path class="st2" d="M362.98,422.81c-0.08-1.66-0.24-3.31-0.24-4.97c-0.01-53.3,0.05-106.61-0.12-159.91
		c-0.02-4.69,0.93-6.05,5.89-6.04c88.46,0.17,176.93,0.13,265.39,0.12c2,0,3.99-0.08,5.99-0.12c0,55.64-0.04,111.28,0.1,166.92
		c0.01,3.42-0.67,4.1-4.1,4.09C544.92,422.79,453.95,422.81,362.98,422.81z"/>
	<path class="st3" d="M306.92,238.21c8.33-0.13,16.66-0.25,24.98-0.38c3.54,1.88,7.6,1.75,11.34,2.91c1.1,0.34,2.16-0.16,3.15-0.99
		c3.12-2.63,6.35-5.11,9.55-7.66c3.33,0.73,4.85,2.37,3.09,5.84c-1.7,3.36-2.8,7.19-7.5,7.73c-0.75,0.09-1.61,1.18-2.01,2.01
		c-2.59,5.33-7.26,3.13-11.27,3.12c-1.26,0-1.97-1.2-2.06-2.46c-0.28-3.95-3.53-2.94-5.82-3.5c-0.4-0.1-0.73,0.08-0.94,0.73
		c-1.24,3.82-2.69,4.61-6.46,3.47c-2.51-0.76-5.24-0.72-7.27,0.37c-2.37,1.27-4.07-0.33-5.32-0.94c-1.59-0.77-0.06-2.35,1.29-3.29
		c0.48-0.33,0.5-1.91-0.45-2.04c-1.34-0.18-3.07-1.28-4.11,0.08c-2.94,3.86-7.76,5.04-11.15,8.21c-0.54,0.5-1.39,0.69-1.76,0.09
		c-3.31-5.31-10.94-6.23-12.95-12.76c-0.48-1.57-2.44-3.01-0.68-4.98c2.03-2.26,3.56,0.16,5.31,0.47
		c5.17,4.97,10.71,8.48,18.19,4.84C304.97,238.66,305.97,238.5,306.92,238.21z"/>
	<path class="st4" d="M355.93,232.1c-3.19,2.54-6.43,5.03-9.55,7.66c-0.99,0.83-2.04,1.34-3.15,0.99c-3.74-1.16-7.8-1.03-11.34-2.91
		c0.88-1.92,2.49-3.58,2.21-5.93c1.53,0,2.33-1.22,3.39-2.01c2.39,0.25,2.64-1.24,2.51-3.06c3.54,3.07,2.04-1.37,3.06-2.06
		c3.46-4.07,3.38-7.77-0.23-10.78c4.11-4.99,0.78-9.51-0.89-14.13c1.84-0.46,1.97-1.51,0.79-2.74c-1.16-1.21-2-2.47-1.87-4.21
		c0.28-1.6,0.94-2.76,2.81-2.87c1.84-0.11,1.93,1.44,2.65,2.46c0.7,1,0.9,5.08,2.86,0.64c1.77,3.24,2.74-0.69,4.29-0.3
		c2.28,1.37-1.07,3.46,0.39,5.08c0,0,0.08-0.11,0.08-0.11c-0.85-0.78-1.53-0.08-1.47,0.53c0.09,0.86,0.95,0.39,1.51,0.27
		c0.27,1.59,0.74,3.12,0.17,4.78c-1.58,4.6,1.05,3.63,3.62,2.67c2.57,1.77,2.76,4.35,1.37,6.62c-1.74,2.82-2.27,4.98,1.22,6.54
		c3.73,1.67-2.48,4.14,0.53,5.8c-0.94,1.09-0.27,3.35-2.44,3.52C356.15,228.73,355.16,229.75,355.93,232.1z"/>
	<path class="st4" d="M306.92,238.21c-0.95,0.29-1.95,0.45-2.83,0.88c-7.48,3.64-13.02,0.14-18.19-4.84
		c2.08-2.44-1.25-4.02-0.98-6.18c2.03,0.29,3.91-0.24,7.64-1.53c-6.58-0.98-3.78-5.3-5.17-8.23c0.08,2.7-0.61,4.51-3.45,4.65
		c-0.03-0.77,0.26-1.6-0.92-1.94c-5.49-1.56-5.61-1.88-3.53-7.17c0.43-1.1,0.41-2.08-0.4-3.22c-1.71-2.42-0.87-5.18-0.8-8.55
		c4.77,4.48,5.22,2.05,4.73-2.11c-0.16-1.32-0.35-2.56,2.07-1.62c2.76,1.06,1.47-1.74,1.67-2.78c0.51-2.73,4.46-5.25,6.82-3.98
		c1.19,0.64,1.98,1.59,0.83,3.22c-1.14,1.61-2.9,1.98-4.54,2.74c2.39,2.23,7.58-0.17,7.77,4.23c0.11,2.66-3.13,3.28-5.79,2.92
		c-0.16-0.7-1.07-1.32-1.23-1.02c-0.49,0.9-0.57,2.03-0.8,3.06c-0.34,0.32-0.69,0.63-1.03,0.95c-1.99,0.45-2.24,1.83-1.59,3.39
		c0.34,0.82,1.4,1.02,2.12,0.43c1.42-1.16,0.39-2.35-0.19-3.49c0.39-0.27,0.78-0.55,1.18-0.82c0.48-0.2,0.95-0.4,1.43-0.6
		c1.61-1.17,3.6-0.94,4.3,0.51c0.65,1.34,0.11,3.13-2.17,3.79c-1.49,0.43-1.27,1.15,0.45,1.76c1.58,0.56,2.3,3.54,1.77,4.14
		c-3.32,3.87-0.08,7.33,0.42,10.87c0.07,0.52,1.14,1.2,0.54,2.17c-2.68,4.3,2.31,3.81,3.21,3.87
		C305.27,234.05,305.68,234.07,306.92,238.21z M290.8,230.2c-0.11-0.26-0.22-0.52-0.33-0.78c-0.1,0.11-0.31,0.24-0.29,0.32
		c0.06,0.27,0.2,0.52,0.31,0.78C290.6,230.42,290.7,230.31,290.8,230.2z"/>
	<path class="st5" d="M339.08,171.97c4.57,1.15,9.74,0.98,11.48,7.21c0.39,1.38,3.97,1.78,5.98,2.83c0.96,0.5,2.78,0.55,2.14,2.52
		c-2.02-0.74-1.69,3.14-4.26,1.96c-3.27-1.5-6.66-3.04-10.47-2.61c0,0,0.1,0.07,0.1,0.07c-2.16-6.62-7.37-7.46-13.28-7.03
		c-1.32,0.1-2.66,0.07-3.98,0.05c-1.01-0.01-1.89-0.24-2.54-1.2c-2.89-4.21-5.77-4.25-8.47-0.09c-0.78,1.2-1.84,1.37-2.99,1.29
		c-7.08-0.51-13.94-0.53-17.86,6.99c0,0,0.07-0.12,0.07-0.12c-2.4,0.54-4.97,0.72-7.15,1.73c-2.41,1.12-3.85,0.63-5.94-0.81
		c-1.54-1.06-0.93-1.38-0.12-1.84c1.57-0.89,3.27-1.55,4.92-2.3c1.56-0.71,2.44-1.6,3.45-3.33c2.75-4.73,8.38-5.11,13.25-6.26
		c2.36-0.56,5.29,0.68,6.31-3.04c0.34-1.23,2.26-1.08,3.59-1.09c3.64-0.02,7.3-0.21,10.93-0.03c2.71,0.14,6.15-1.06,7.08,3.42
		c0.26,1.24,2.41,0.37,3.64,0.76c-0.55,1.06-1.09,2.12-1.64,3.18c-0.52-0.32-0.16-1.49-1.12-1.22c-0.14,0.04-0.19,1.6,0.12,1.79
		c2.69,1.64,6.39,1.96,8.37,0.53c3.28-2.37-2.49-0.49-1.72-2.39C339.09,172.66,339.04,172.3,339.08,171.97z"/>
	<path class="st5" d="M299.95,189.07c-1.65-1.74-3.3-3.48-4.95-5.22c0,0-0.07,0.12-0.07,0.12c2.49-0.01,4.98-0.14,7.45,0
		c4.41,0.25,10.44-1.98,12.77,0.94c2.19,2.74,0.58,8.52,0.64,12.96c-1.14-0.84-1.83-0.86-1.59,0.86c-0.21,0.18-0.42,0.36-0.63,0.53
		c-1.49-0.81-1.79-3.23-4.38-3.06c0.56,2.19,1.23,4.11,2.65,5.73c-0.04,1.02-0.08,2.04-0.11,3.06c-0.87,1.26-0.93,2.55-0.09,3.85
		c-0.16,1.61,0.42,3.3-0.54,4.82c-0.34-0.14-0.69-0.28-1.03-0.42c-1.7-2.11-5.23-3.01-5.09-6.26c0.15-3.44-1.81-3.26-4.04-3.17
		C300.35,198.92,301.97,193.87,299.95,189.07z"/>
	<path class="st3" d="M343.95,183.88c-0.82,2.3-2.51,3.96-4.12,5.68c-1.73,4.64-0.41,9.47-0.86,14.19c-1.17,0.05-2.33,0.11-3.5,0.16
		c-0.08-1.78-0.09-3.56-0.25-5.33c-0.11-1.19,0.62-2.73-0.99-3.42c-1.49-0.63-2.41,0.43-3.29,1.4c-0.65,0.71-1.3,1.43-1.95,2.15
		c-2.53,0.13-2.31,3.42-4.52,3.93c-1.43-6.14-0.31-12.38-0.67-18.7c6.77,0,13.51,0,20.26,0L343.95,183.88z"/>
	<path class="st3" d="M316.8,222.78c-0.84,0.5-0.73,1.37-0.92,2.16c-0.65,2.74,2.32,7.33-4.25,6.97
		c-7.46-0.41-11.02-2.39-11.43-8.14c-0.27-3.8,0-7.64,0.03-11.46c0.32-0.03,0.59-0.16,0.8-0.4c5.57-0.25,8.05,4.01,10.57,7.73
		c1.31,1.93,2.13,3.19,4.48,2.03C316.32,222.04,316.56,222.41,316.8,222.78z"/>
	<path class="st5" d="M337.5,229.9c-1.06,0.78-1.86,2.01-3.39,2.01c-3.44,0-6.89,0-10.4,0c-0.12-2.5,1.05-4.9-0.58-7.04
		c0.01-0.9,0.76-0.86,1.34-1.03c1.81,2.11,4.11,2.79,6.62,1.71c2.69-1.15,3.76-3.53,3.79-6.36c0.02-2.12-0.06-4.25-0.1-6.37
		c1.1-1.85,2.84-0.55,4.26-0.88c0.09,4.38,0.19,8.75,0.28,13.13c0.04,0.57,0.08,1.15,0.11,1.72
		C337.93,227.29,338.21,228.9,337.5,229.9z"/>
	<path class="st6" d="M324.48,223.84c-0.58,0.17-1.32,0.13-1.33,1.03c-0.4-0.01-0.8-0.03-1.21-0.04c0.66-2.43-1.52-1.89-2.61-2.49
		c1.42-0.26,3.62-0.62,2.73-2.34c-0.89-1.72,1.07-5.22-2.85-5.21c-0.84,0.5-1.67,0.99-2.51,1.49c-1.93,0.22-2.62-0.71-2.62-2.58
		c0-1.97-0.41-3.86-2.44-4.86c-0.84-1.31-0.77-2.59,0.09-3.86c3.14,2.01,3.02,6.33,5.88,8.52c1.59-1.1,2.97-2.42,4.61-3.1
		c4.12-1.72,5.38-4.04,2.24-7.75c2.2-0.51,1.99-3.8,4.52-3.93c-0.11,3.72-0.23,7.43-0.34,11.15c-1.17-0.11-2.7-0.25-2.53,1.37
		c0.27,2.61-1.73,5.04-1.06,7.23c0.49,1.62-3.45,2.3-0.4,3.65C324.59,222.7,324.53,223.27,324.48,223.84z"/>
	<path class="st6" d="M339.33,225.07c-0.09-4.38-0.19-8.75-0.29-13.13c-0.03-2.73-0.06-5.46-0.08-8.19
		c0.45-4.72-0.87-9.54,0.86-14.19c0.31,1.13-0.39,2.59,1.07,3.36c-0.13,1.74,0.71,3.01,1.87,4.21c1.18,1.23,1.05,2.28-0.79,2.74
		c-2.69-1.11-1.92,0.99-2.04,2.22C339.17,209.74,340.94,217.45,339.33,225.07z"/>
	<path class="st6" d="M357.81,206.08c-2.58,0.96-5.21,1.92-3.62-2.67c0.57-1.66,0.1-3.2-0.17-4.78c-0.03-0.27-0.05-0.53-0.04-0.8
		c0,0-0.08,0.11-0.08,0.11c1.21-0.11,2.12-2.64,3.01-1.29c1.08,1.63,1.2,3.99,1.4,6.06C358.41,203.77,356.13,204.64,357.81,206.08z"
		/>
	<path class="st6" d="M283.95,222.95c2.84-0.13,3.53-1.94,3.45-4.65c1.39,2.93-1.41,7.25,5.17,8.23c-3.73,1.3-5.61,1.82-7.64,1.53
		C281.81,224.62,281.81,224.62,283.95,222.95z"/>
	<path class="st5" d="M319.32,222.35c1.09,0.6,3.27,0.05,2.61,2.49c-2.63,1.62-4.98,2.53-5.14-2.05c-0.24-0.37-0.48-0.74-0.71-1.11
		c-3.76-2.25,1.37-3.48,0.62-5.39c0.84-0.5,1.67-0.99,2.5-1.49C318.95,217.32,318.79,219.84,319.32,222.35z"/>
	<path class="st6" d="M339.08,171.97c-0.03,0.33,0.01,0.69-0.11,0.98c-0.78,1.9,4.99,0.02,1.72,2.39c-1.98,1.43-5.68,1.11-8.37-0.53
		c-0.31-0.19-0.25-1.75-0.12-1.79c0.96-0.27,0.6,0.91,1.12,1.22c0.55-1.06,1.09-2.12,1.64-3.18
		C336.49,170.63,337.79,171.29,339.08,171.97z"/>
	<path class="st6" d="M301.03,211.92c-0.21,0.24-0.48,0.37-0.8,0.4c-0.09-7.75-0.19-15.5-0.28-23.25c2.02,4.8,0.4,9.85,0.99,14.75
		C300.97,206.52,301,209.22,301.03,211.92z"/>
	<path class="st6" d="M291.73,206.6c-0.48,0.2-0.95,0.4-1.43,0.6c-0.16-0.15-0.32-0.31-0.48-0.46c0.24-1.04,0.32-2.16,0.81-3.06
		c0.17-0.31,1.07,0.32,1.23,1.02C291.82,205.33,291.77,205.96,291.73,206.6z"/>
	<path class="st1" d="M339.33,225.07c1.61-7.62-0.16-15.33,0.59-22.97c0.12-1.23-0.64-3.33,2.04-2.22c1.67,4.62,5,9.14,0.89,14.13
		c-0.48,2.95-3.82,5.9,0.05,8.89c0.34,0.26,0.13,1.24,0.18,1.89c-1.02,0.69,0.48,5.13-3.06,2.06c0,0-0.27-0.24-0.27-0.24l-0.3,0.19
		C339.41,226.22,339.37,225.65,339.33,225.07z"/>
	<path class="st6" d="M343.08,224.79c-0.05-0.65,0.16-1.63-0.18-1.89c-3.87-2.99-0.52-5.94-0.05-8.89
		C346.46,217.02,346.54,220.72,343.08,224.79z"/>
	<path class="st6" d="M339.45,226.79l0.3-0.19c0,0,0.27,0.24,0.27,0.24c0.13,1.81-0.12,3.31-2.51,3.06
		C338.21,228.9,337.93,227.29,339.45,226.79z"/>
	<path class="st1" d="M353.97,197.82c-0.01,0.27,0.01,0.54,0.04,0.8c-0.56,0.11-1.42,0.58-1.51-0.27
		C352.44,197.74,353.12,197.04,353.97,197.82z"/>
	<path class="st6" d="M289.13,208.02c0.57,1.14,1.61,2.33,0.19,3.49c-0.71,0.59-1.77,0.39-2.12-0.43c-0.65-1.56-0.4-2.95,1.59-3.39
		C288.79,207.69,289.13,208.02,289.13,208.02z"/>
	<path class="st6" d="M290.8,230.2c-0.1,0.11-0.2,0.22-0.31,0.33c-0.11-0.26-0.25-0.51-0.31-0.78c-0.02-0.08,0.19-0.21,0.29-0.32
		C290.58,229.68,290.69,229.94,290.8,230.2z"/>
	<path class="st6" d="M290.31,207.2c-0.39,0.27-0.78,0.55-1.18,0.82c0,0-0.34-0.33-0.34-0.33c0.34-0.32,0.69-0.63,1.03-0.95
		C289.98,206.89,290.14,207.05,290.31,207.2z"/>
	<path class="st1" d="M324.46,202.65c3.13,3.71,1.88,6.03-2.24,7.75c-1.64,0.69-3.02,2.01-4.61,3.1c-2.85-2.19-2.74-6.5-5.88-8.52
		c0.04-1.02,0.08-2.04,0.11-3.06c1.38,0.08,1.67,2.79,3.46,1.6c1.57-1.04,1.46-2.66,0.79-4.27c-0.18-0.43-0.21-0.92-0.3-1.39
		c-0.06-4.44,1.55-10.22-0.64-12.96c-2.33-2.92-8.36-0.69-12.77-0.94c-2.48-0.14-4.97-0.01-7.45,0c3.93-7.52,10.78-7.5,17.86-6.99
		c1.15,0.08,2.21-0.09,2.99-1.29c2.7-4.16,5.58-4.12,8.47,0.09c0.66,0.96,1.53,1.18,2.54,1.2c1.33,0.02,2.66,0.05,3.98-0.05
		c5.91-0.44,11.11,0.4,13.28,7.03c-6.74,0-13.49,0-20.26,0C324.15,190.27,323.03,196.51,324.46,202.65z M319.41,201.62
		c2.48-3.36,1.39-6.33,1.56-9.04c0.01-0.14-1.04-0.59-1.22-0.44c-2.04,1.73-0.26,3.99-0.72,5.98
		C318.86,198.88,319.18,199.74,319.41,201.62z"/>
	<path class="st1" d="M301.03,211.92c-0.03-2.7-0.06-5.4-0.1-8.1c2.24-0.09,4.2-0.27,4.04,3.17c-0.14,3.25,3.39,4.15,5.09,6.26
		c0.11,0.72,0.43,0.92,1.04,0.42c0.95-1.52,0.37-3.21,0.54-4.82c2.03,1.01,2.44,2.89,2.44,4.86c0,1.86,0.69,2.79,2.62,2.58
		c0.76,1.91-4.37,3.14-0.61,5.39c-2.36,1.16-3.18-0.1-4.48-2.03C309.08,215.93,306.6,211.67,301.03,211.92z"/>
	<path class="st6" d="M315.79,197.87c0.1,0.46,0.12,0.96,0.3,1.39c0.66,1.61,0.78,3.23-0.79,4.27c-1.79,1.19-2.08-1.52-3.46-1.6
		c-1.42-1.62-2.09-3.54-2.65-5.73c2.59-0.17,2.89,2.25,4.38,3.05c0.33,0.39,0.37,1.45,1.09,0.97c0.56-0.37,0.07-1.1-0.46-1.5
		C313.96,197.01,314.65,197.03,315.79,197.87z"/>
	<path class="st6" d="M311.1,213.66c-0.61,0.5-0.93,0.3-1.04-0.42C310.41,213.38,310.76,213.52,311.1,213.66z"/>
	<path class="st1" d="M338.96,203.75c0.03,2.73,0.06,5.46,0.08,8.19c-1.41,0.32-3.16-0.97-4.25,0.88c-2.45,2.5-5.71,4.26-6.88,7.93
		c-0.48,1.49-1.88,1.6-3.26,1.38c-3.05-1.35,0.9-2.03,0.4-3.65c-0.67-2.19,1.32-4.62,1.06-7.23c-0.17-1.62,1.37-1.48,2.53-1.37
		c0.09,1.26-0.49,2.63,0.7,3.9c3.05-2.69,6.87-4.81,6.12-9.86C336.63,203.86,337.8,203.81,338.96,203.75z"/>
	<path class="st2" d="M335.46,203.92c0.75,5.05-3.06,7.16-6.12,9.86c-1.19-1.27-0.61-2.64-0.7-3.9c0.11-3.72,0.23-7.43,0.34-11.15
		c0.65-0.72,1.29-1.44,1.95-2.15c0.88-0.97,1.8-2.03,3.29-1.4c1.61,0.69,0.89,2.23,0.99,3.42
		C335.37,200.36,335.39,202.14,335.46,203.92z"/>
	<path class="st3" d="M324.65,222.12c1.38,0.22,2.78,0.11,3.26-1.38c1.17-3.66,4.43-5.42,6.88-7.93c0.04,2.13,0.12,4.25,0.1,6.37
		c-0.03,2.83-1.1,5.21-3.79,6.36c-2.51,1.08-4.81,0.4-6.62-1.71C324.53,223.27,324.59,222.7,324.65,222.12z"/>
	<path class="st3" d="M319.32,222.35c-0.54-2.51-0.37-5.03-0.12-7.55c3.93-0.01,1.96,3.49,2.85,5.21
		C322.95,221.73,320.75,222.08,319.32,222.35z"/>
	<path class="st6" d="M319.41,201.62c-0.23-1.88-0.55-2.75-0.38-3.49c0.45-1.99-1.32-4.25,0.72-5.98c0.17-0.15,1.22,0.31,1.22,0.44
		C320.8,195.29,321.89,198.26,319.41,201.62z"/>
	<path class="st5" d="M314.2,198.73c0.53,0.4,1.02,1.13,0.46,1.5c-0.72,0.47-0.75-0.58-1.09-0.97
		C313.79,199.08,314,198.91,314.2,198.73z"/>
</g>
</svg>
